<svg xmlns="http://www.w3.org/2000/svg" viewBox="0 0 285.14 64" role="img" aria-labelledby="recellLogoTitle">
<title id="recellLogoTitle">Recell</title>
<g transform="translate(2 4)"><svg width="56" height="56" viewBox="0 0 24 24" fill="none" stroke="#0052FF" stroke-width="2" stroke-linecap="round" stroke-linejoin="round"><path d="M3 12a9 9 0 0 1 9-9 9.75 9.75 0 0 1 6.74 2.74L21 8"/><path d="M21 3v5h-5"/><path d="M21 12a9 9 0 0 1-9 9 9.75 9.75 0 0 1-6.74-2.74L3 16"/><path d="M8 16H3v5"/></svg></g>
<g transform="translate(70 50)"><path d="M27.404255319148934 0.0 17.878014184397163 -17.29078014184397H15.202836879432624V0.0H4.045390070921986V-45.804255319148936H22.771631205673756Q28.18723404255319 -45.804255319148936 32.00425531914893 -43.91205673758866Q35.82127659574468 -42.01985815602837 37.71347517730496 -38.724822695035456Q39.605673758865244 -35.42978723404255 39.605673758865244 -31.384397163120568Q39.605673758865244 -26.817021276595742 37.02836879432624 -23.22836879432624Q34.45106382978723 -19.639716312056738 29.42695035460993 -18.139007092198582L39.99716312056737 0.0ZM15.202836879432624 -25.18581560283688H22.119148936170212Q25.18581560283688 -25.18581560283688 26.719148936170214 -26.686524822695034Q28.252482269503545 -28.18723404255319 28.252482269503545 -30.927659574468084Q28.252482269503545 -33.53758865248227 26.719148936170214 -35.03829787234042Q25.18581560283688 -36.53900709219858 22.119148936170212 -36.53900709219858H15.202836879432624Z" fill="#0F172A"/><path d="M80.71205673758865 -15.529078014184396H55.46099290780141Q55.721985815602835 -12.136170212765958 57.646808510638294 -10.341843971631207Q59.571631205673754 -8.547517730496454 62.37730496453901 -8.547517730496454Q66.5531914893617 -8.547517730496454 68.18439716312056 -12.070921985815602H80.0595744680851Q79.14609929078014 -8.4822695035461 76.7645390070922 -5.611347517730497Q74.38297872340425 -2.7404255319148936 70.79432624113474 -1.1092198581560284Q67.20567375886525 0.5219858156028369 62.768794326241135 0.5219858156028369Q57.41843971631205 0.5219858156028369 53.24255319148936 -1.7617021276595746Q49.06666666666666 -4.045390070921986 46.717730496453896 -8.286524822695036Q44.36879432624113 -12.527659574468085 44.36879432624113 -18.204255319148935Q44.36879432624113 -23.880851063829788 46.68510638297872 -28.121985815602837Q49.00141843971631 -32.36312056737589 53.177304964539005 -34.646808510638294Q57.3531914893617 -36.93049645390071 62.768794326241135 -36.93049645390071Q68.05390070921985 -36.93049645390071 72.16453900709219 -34.712056737588654Q76.27517730496453 -32.49361702127659 78.59148936170212 -28.382978723404253Q80.9078014184397 -24.272340425531915 80.9078014184397 -18.791489361702126Q80.9078014184397 -17.225531914893615 80.71205673758865 -15.529078014184396ZM69.48936170212765 -21.727659574468085Q69.48936170212765 -24.598581560283687 67.53191489361701 -26.295035460992906Q65.57446808510637 -27.991489361702126 62.63829787234042 -27.991489361702126Q59.83262411347518 -27.991489361702126 57.90780141843972 -26.36028368794326Q55.98297872340425 -24.729078014184395 55.52624113475177 -21.727659574468085Z" fill="#0F172A"/><path d="M107.92056737588652 -46.32624113475177Q116.07659574468084 -46.32624113475177 121.8836879432624 -42.01985815602836Q127.69078014184396 -37.713475177304964 129.6482269503546 -30.275177304964537H117.38156028368793Q116.01134751773048 -33.14609929078014 113.49929078014183 -34.646808510638294Q110.98723404255318 -36.14751773049645 107.7900709219858 -36.14751773049645Q102.6354609929078 -36.14751773049645 99.43829787234043 -32.55886524822695Q96.24113475177305 -28.970212765957445 96.24113475177305 -22.96737588652482Q96.24113475177305 -16.9645390070922 99.43829787234043 -13.375886524822695Q102.6354609929078 -9.787234042553191 107.7900709219858 -9.787234042553191Q110.98723404255318 -9.787234042553191 113.49929078014183 -11.287943262411346Q116.01134751773048 -12.788652482269503 117.38156028368793 -15.659574468085106H129.6482269503546Q127.69078014184396 -8.22127659574468 121.8836879432624 -3.9475177304964535Q116.07659574468084 0.326241134751773 107.92056737588652 0.326241134751773Q101.26524822695035 0.326241134751773 96.0127659574468 -2.6425531914893616Q90.76028368794326 -5.611347517730496 87.8241134751773 -10.89645390070922Q84.88794326241134 -16.181560283687944 84.88794326241134 -22.96737588652482Q84.88794326241134 -29.7531914893617 87.8241134751773 -35.0709219858156Q90.76028368794326 -40.3886524822695 96.0127659574468 -43.35744680851063Q101.26524822695035 -46.32624113475177 107.92056737588652 -46.32624113475177Z" fill="#0052FF"/><path d="M170.6241134751773 -15.529078014184396H145.37304964539007Q145.63404255319148 -12.136170212765958 147.55886524822694 -10.341843971631207Q149.4836879432624 -8.547517730496454 152.28936170212765 -8.547517730496454Q156.46524822695034 -8.547517730496454 158.0964539007092 -12.070921985815602H169.97163120567376Q169.05815602836878 -8.4822695035461 166.67659574468084 -5.611347517730497Q164.2950354609929 -2.7404255319148936 160.7063829787234 -1.1092198581560284Q157.1177304964539 0.5219858156028369 152.68085106382978 0.5219858156028369Q147.3304964539007 0.5219858156028369 143.154609929078 -1.7617021276595746Q138.9787234042553 -4.045390070921986 136.62978723404254 -8.286524822695036Q134.28085106382977 -12.527659574468085 134.28085106382977 -18.204255319148935Q134.28085106382977 -23.880851063829788 136.59716312056736 -28.121985815602837Q138.91347517730495 -32.36312056737589 143.08936170212763 -34.646808510638294Q147.26524822695035 -36.93049645390071 152.68085106382978 -36.93049645390071Q157.9659574468085 -36.93049645390071 162.07659574468084 -34.712056737588654Q166.1872340425532 -32.49361702127659 168.5035460992908 -28.382978723404253Q170.81985815602837 -24.272340425531915 170.81985815602837 -18.791489361702126Q170.81985815602837 -17.225531914893615 170.6241134751773 -15.529078014184396ZM159.4014184397163 -21.727659574468085Q159.4014184397163 -24.598581560283687 157.44397163120567 -26.295035460992906Q155.48652482269503 -27.991489361702126 152.55035460992906 -27.991489361702126Q149.74468085106383 -27.991489361702126 147.81985815602837 -26.36028368794326Q145.89503546099291 -24.729078014184395 145.43829787234043 -21.727659574468085Z" fill="#0F172A"/><path d="M187.84964539007092 -48.28368794326241V0.0H176.6921985815603V-48.28368794326241Z" fill="#0F172A"/><path d="M207.09787234042554 -48.28368794326241V0.0H195.9404255319149V-48.28368794326241Z" fill="#0F172A"/></g>
</svg>
